# Blender 4.4.0
# www.blender.org
mtllib body2.mtl
o body
v 0.749038 0.300000 0.000000
v 0.600000 0.300000 0.000000
v 0.749038 0.000000 0.000000
v 0.600000 0.000000 0.000000
v 0.300000 0.300000 -0.519615
v 0.300000 0.000000 -0.519615
v 2.749038 0.000000 0.000000
v 2.898076 0.000000 0.000000
v 2.749038 0.300000 0.000000
v 2.898076 0.300000 0.000000
v 3.198076 0.300000 -0.519615
v 3.198076 0.000000 -0.519615
v 2.898076 0.000000 0.000000
v 2.049038 0.300000 -2.509808
v 2.049038 0.000000 -2.509808
v 1.449038 0.300000 -2.509808
v 1.449038 0.000000 -2.509808
v 2.049038 0.000000 -2.509808
v 2.749038 0.300000 -0.400000
v 0.749038 0.300000 -0.400000
v 0.749038 0.000000 0.000000
v 0.749038 0.000000 -0.400000
v 2.749038 0.000000 -0.400000
v 3.198076 0.000000 -0.519615
v 2.749038 0.000000 0.000000
v 0.749038 0.000000 0.000000
v 2.749038 0.000000 -0.400000
v 2.749038 0.000000 -0.400000
vn 1.0000 -0.0000 -0.0000
vn -0.8660 -0.0000 -0.5000
vn -0.0000 -0.0000 1.0000
vn 0.8660 -0.0000 0.5000
vn 0.8660 -0.0000 -0.5000
vn -0.0000 -0.0000 -1.0000
vn -0.0000 1.0000 -0.0000
vn -0.0000 -1.0000 -0.0000
vn -0.8660 -0.0000 0.5000
vn -1.0000 -0.0000 -0.0000
s 0
f 22//1 20//1 1//1 26//1
f 5//2 16//2 17//2 6//2
f 1//3 2//3 4//3 3//3
f 11//4 10//4 13//4 12//4
f 14//5 11//5 12//5 15//5
f 16//6 14//6 18//6 17//6
f 9//7 10//7 11//7 14//7 16//7 5//7 2//7 1//7 20//7 19//7
f 28//3 19//3 20//3 22//3
f 21//8 4//8 6//8 17//8 18//8 24//8 8//8 25//8 23//8 22//8
f 2//9 5//9 6//9 4//9
f 7//3 8//3 10//3 9//3
f 19//10 27//10 7//10 9//10
