# Blender 4.3.2
# www.blender.org
o base
v 0.600000 1.300000 0.000000
v 0.300000 1.300000 -0.519615
v 0.600000 0.000000 0.000000
v 0.300000 0.000000 -0.519615
v 2.898076 1.300000 0.000000
v 2.898076 0.000000 0.000000
v 3.198076 1.300000 -0.519615
v 3.198076 0.000000 -0.519615
v 2.049038 1.300000 -2.509808
v 2.049038 0.000000 -2.509808
v 1.449038 1.300000 -2.509808
v 1.449038 0.000000 -2.509808
vn 0.8660 -0.0000 0.5000
vn 0.8660 -0.0000 -0.5000
vn -0.0000 -0.0000 -1.0000
vn -0.8660 -0.0000 -0.5000
vn -0.8660 -0.0000 0.5000
vn -0.0000 1.0000 -0.0000
vn -0.0000 -0.0000 1.0000
vn -0.0000 -1.0000 -0.0000
s 0
f 7//1 5//1 6//1 8//1
f 9//2 7//2 8//2 10//2
f 11//3 9//3 10//3 12//3
f 2//4 11//4 12//4 4//4
f 1//5 2//5 4//5 3//5
f 2//6 1//6 5//6 7//6 9//6 11//6
f 5//7 1//7 3//7 6//7
f 6//8 3//8 4//8 12//8 10//8 8//8
