# Aspose.3D Wavefront OBJ Exporter
# Copyright 2004-2024 Aspose Pty Ltd.
# File created: 12/09/2024 15:18:22

mtllib material.lib
g <STL_BINARY>

#
# object <STL_BINARY>
#

v 60.000004 0 115
v 30.000002 51.96152 115
v 60.000004 0 0
v 60.000004 0 0
v 30.000002 51.96152 115
v 30.000002 51.96152 0
v 289.80762 0 115
v 60.000004 0 115
v 289.80762 0 0
v 289.80762 0 0
v 60.000004 0 115
v 60.000004 0 0
v 319.80762 51.96152 115
v 289.80762 0 115
v 319.80762 51.96152 -5.551115E-14
v 319.80762 51.96152 -5.551115E-14
v 289.80762 0 115
v 289.80762 0 -5.551115E-14
v 204.90381 250.98076 115
v 319.80762 51.96152 115
v 204.90381 250.98076 -5.551115E-14
v 204.90381 250.98076 -5.551115E-14
v 319.80762 51.96152 115
v 319.80762 51.96152 -5.551115E-14
v 144.90381 250.98076 115
v 204.90381 250.98076 115
v 144.90381 250.98076 0
v 144.90381 250.98076 0
v 204.90381 250.98076 115
v 204.90381 250.98076 0
v 30.000002 51.96152 115
v 144.90381 250.98076 115
v 30.000002 51.96152 0
v 30.000002 51.96152 0
v 144.90381 250.98076 115
v 144.90381 250.98076 0
v 289.80762 0 115
v 319.80762 51.96152 115
v 60.000004 0 115
v 60.000004 0 115
v 319.80762 51.96152 115
v 204.90381 250.98076 115
v 60.000004 0 115
v 204.90381 250.98076 115
v 30.000002 51.96152 115
v 30.000002 51.96152 115
v 204.90381 250.98076 115
v 144.90381 250.98076 115
v 289.80762 0 0
v 60.000004 0 0
v 319.80762 51.96152 0
v 319.80762 51.96152 0
v 60.000004 0 0
v 30.000002 51.96152 0
v 319.80762 51.96152 0
v 30.000002 51.96152 0
v 204.90381 250.98076 0
v 204.90381 250.98076 0
v 30.000002 51.96152 0
v 144.90381 250.98076 0
# 60 vertices

vn -0.8660254 -0.5 0
vn -0.8660254 -0.5 0
vn -0.8660254 -0.5 0
vn -0.8660254 -0.5 0
vn -0.8660254 -0.5 0
vn -0.8660254 -0.5 0
vn 0 -1 0
vn 0 -1 0
vn 0 -1 0
vn 0 -1 0
vn 0 -1 0
vn 0 -1 0
vn 0.8660254 -0.5 0
vn 0.8660254 -0.5 0
vn 0.8660254 -0.5 0
vn 0.8660254 -0.5 0
vn 0.8660254 -0.5 0
vn 0.8660254 -0.5 0
vn 0.8660254 0.5 0
vn 0.8660254 0.5 0
vn 0.8660254 0.5 0
vn 0.8660254 0.5 0
vn 0.8660254 0.5 0
vn 0.8660254 0.5 0
vn 0 1 0
vn 0 1 0
vn 0 1 0
vn 0 1 0
vn 0 1 0
vn 0 1 0
vn -0.8660254 0.5 0
vn -0.8660254 0.5 0
vn -0.8660254 0.5 0
vn -0.8660254 0.5 0
vn -0.8660254 0.5 0
vn -0.8660254 0.5 0
vn 0 0 1
vn 0 0 1
vn 0 0 1
vn 0 0 1
vn 0 0 1
vn 0 0 1
vn 0 0 1
vn 0 0 1
vn 0 0 1
vn 0 0 1
vn 0 0 1
vn 0 0 1
vn 0 0 -1
vn 0 0 -1
vn 0 0 -1
vn 0 0 -1
vn 0 0 -1
vn 0 0 -1
vn 0 0 -1
vn 0 0 -1
vn 0 0 -1
vn 0 0 -1
vn 0 0 -1
vn 0 0 -1
# 60 vertex normals

usemtl DefaultMaterial
s 1
f 1//1 2//2 3//3
f 4//4 5//5 6//6
f 7//7 8//8 9//9
f 10//10 11//11 12//12
f 13//13 14//14 15//15
f 16//16 17//17 18//18
f 19//19 20//20 21//21
f 22//22 23//23 24//24
f 25//25 26//26 27//27
f 28//28 29//29 30//30
f 31//31 32//32 33//33
f 34//34 35//35 36//36
f 37//37 38//38 39//39
f 40//40 41//41 42//42
f 43//43 44//44 45//45
f 46//46 47//47 48//48
f 49//49 50//50 51//51
f 52//52 53//53 54//54
f 55//55 56//56 57//57
f 58//58 59//59 60//60
#20 polygons

